<?xml version="1.0" encoding="UTF-8"?><svg id="Layer_1" xmlns="http://www.w3.org/2000/svg" viewBox="0 0 501.92 617.64"><defs><style>.cls-1{fill:#fff;}</style></defs><path class="cls-1" d="m496.99,564.92l-168.55-218.02c85.41-26.66,113.41-74.05,113.41-74.05,58.15-103.82-10.87-195.43-10.87-195.43C376.7,5.24,263.59.13,263.59.13c0,0-208.61-.28-230.77,0C10.65.41,2.98,21.16,2.98,21.16c-8.24,19.33,6.25,36.38,6.25,36.38l186.44,236.3s-124.71-2.02-162.62,0C-4.86,295.86.44,331.44.44,331.44c0,0-.99,247.26,0,255.02s9.35,32.52,37.35,31.12,34.03-30.69,34.03-30.69v-223.57h180.64s160.54,211.08,186.81,239.94c26.28,28.86,52.99,5.17,52.99,5.17,18.52-16.8,4.74-43.51,4.74-43.51ZM110.16,69.1h114.59c98.65,0,141.72,40.92,141.72,40.92,18.74,20.19,25.73,42.14,27.14,61.69,2.91,40.29-18.42,78.27-53.44,98.39-30.41,17.48-59.42,18.26-59.42,18.26L110.16,69.1Z"/></svg>