<?xml version="1.0" standalone="no"?>
<!DOCTYPE svg PUBLIC "-//W3C//DTD SVG 20010904//EN"
 "http://www.w3.org/TR/2001/REC-SVG-20010904/DTD/svg10.dtd">
<svg version="1.0" xmlns="http://www.w3.org/2000/svg"
 width="336.000000pt" height="415.000000pt" viewBox="0 0 336.000000 415.000000"
 preserveAspectRatio="xMidYMid meet">

<g transform="translate(0.000000,415.000000) scale(0.100000,-0.100000)"
fill="#000000" stroke="none">
<path d="M140 4124 c-46 -20 -87 -59 -113 -109 -28 -55 -29 -155 -2 -210 12
-22 301 -395 643 -828 342 -433 622 -790 622 -792 0 -2 -251 -5 -557 -7 l-558
-3 -52 -29 c-60 -33 -97 -81 -113 -146 -8 -32 -10 -312 -8 -935 l3 -890 29
-52 c89 -162 325 -158 408 6 l28 55 0 763 0 763 598 0 598 0 648 -825 c380
-484 661 -832 680 -844 119 -74 275 -31 338 93 29 56 29 156 0 211 -11 22
-271 357 -576 744 -306 388 -553 708 -549 711 5 4 44 19 88 34 188 65 356 167
486 296 123 122 202 247 255 404 94 274 77 638 -40 891 -180 390 -597 641
-1171 705 -52 6 -415 10 -870 10 -674 -1 -785 -3 -815 -16z m1535 -454 c166
-11 276 -31 405 -72 368 -118 540 -330 540 -665 0 -298 -117 -480 -395 -614
-104 -50 -249 -97 -315 -101 l-38 -3 -571 725 c-314 399 -571 728 -571 733 0
10 780 8 945 -3z"/>
</g>
</svg>
